<?xml version="1.0" standalone="no"?>
<!DOCTYPE svg PUBLIC "-//W3C//DTD SVG 20010904//EN"
 "http://www.w3.org/TR/2001/REC-SVG-20010904/DTD/svg10.dtd">
<svg version="1.0" xmlns="http://www.w3.org/2000/svg"
 width="550.000000pt" height="550.000000pt" viewBox="0 0 550.000000 550.000000"
 preserveAspectRatio="xMidYMid meet">

<g transform="translate(0.000000,550.000000) scale(0.100000,-0.100000)"
fill="#000000" stroke="none">
<path d="M1212 3842 c-260 -510 -591 -1160 -737 -1445 -146 -285 -265 -520
-265 -523 0 -2 131 -3 291 -2 l291 3 270 530 c540 1059 608 1191 620 1208 14
19 12 24 664 -1255 l248 -488 294 0 293 0 -49 92 c-46 86 -398 774 -1141 2233
-159 313 -294 571 -298 572 -4 2 -221 -415 -481 -925z"/>
<path d="M2459 3498 c43 -84 239 -466 434 -848 855 -1678 969 -1900 976 -1900
3 0 54 96 113 213 115 227 1103 2164 1269 2485 54 106 99 195 99 197 0 3 -131
4 -291 3 l-290 -3 -175 -340 c-96 -187 -299 -582 -451 -878 l-276 -538 -211
413 c-116 228 -319 624 -451 881 l-240 467 -293 0 -293 0 80 -152z"/>
<path d="M3480 2754 c0 -19 375 -743 381 -737 8 9 379 731 379 738 0 3 -171 5
-380 5 -209 0 -380 -3 -380 -6z"/>
</g>
</svg>
